<?xml version="1.0" standalone="no"?>
<!DOCTYPE svg PUBLIC "-//W3C//DTD SVG 20010904//EN"
 "http://www.w3.org/TR/2001/REC-SVG-20010904/DTD/svg10.dtd">
<svg version="1.0" xmlns="http://www.w3.org/2000/svg"
 width="225.000000pt" height="225.000000pt" viewBox="0 0 225.000000 225.000000"
 preserveAspectRatio="xMidYMid meet">
<metadata>
Created by potrace 1.11, written by Peter Selinger 2001-2013
</metadata>
<g transform="translate(0.000000,225.000000) scale(0.100000,-0.100000)"
fill="#000000" stroke="none">
<path d="M20 1125 l0 -1105 1105 0 1105 0 0 1105 0 1105 -1105 0 -1105 0 0
-1105z m1918 -7 l-3 -803 -802 -3 -803 -2 0 805 0 805 805 0 805 0 -2 -802z"/>
<path d="M928 1115 l-417 -575 202 0 202 0 332 458 c183 251 371 510 418 575
l85 117 -202 0 -203 -1 -417 -574z"/>
</g>
</svg>
